<svg viewBox="0 0 880 760" xmlns="http://www.w3.org/2000/svg" font-family="-apple-system,Segoe UI,Roboto,sans-serif">
<rect width="880" height="760" fill="#FFFFFF"/>
<text x="70" y="34" fill="#2C2C2A" font-size="19" font-weight="500">Ethereum gas per block — SP1 Hypercube benchmark window</text>
<text x="70" y="56" fill="#5F5E5A" font-size="13">994 random blocks · 23807742–23811998 · 15–16 Nov 2025 · gas limit ~45M</text>
<text x="70" y="66" fill="#2C2C2A" font-size="14" font-weight="500">Distribution of gas used</text>
<line x1="70" y1="324.0" x2="852" y2="324.0" stroke="#E1E0D9"/>
<text x="62" y="328.0" fill="#888780" font-size="11" text-anchor="end">0</text>
<line x1="70" y1="279.2" x2="852" y2="279.2" stroke="#E1E0D9"/>
<text x="62" y="283.2" fill="#888780" font-size="11" text-anchor="end">40</text>
<line x1="70" y1="223.1" x2="852" y2="223.1" stroke="#E1E0D9"/>
<text x="62" y="227.1" fill="#888780" font-size="11" text-anchor="end">90</text>
<line x1="70" y1="178.3" x2="852" y2="178.3" stroke="#E1E0D9"/>
<text x="62" y="182.3" fill="#888780" font-size="11" text-anchor="end">130</text>
<line x1="70" y1="122.2" x2="852" y2="122.2" stroke="#E1E0D9"/>
<text x="62" y="126.2" fill="#888780" font-size="11" text-anchor="end">180</text>
<line x1="70" y1="77.4" x2="852" y2="77.4" stroke="#E1E0D9"/>
<text x="62" y="81.4" fill="#888780" font-size="11" text-anchor="end">220</text>
<rect x="75.0" y="272.4" width="76.9" height="51.6" fill="#378ADD" rx="3"/>
<text x="113.4" y="266.4" fill="#5F5E5A" font-size="11" text-anchor="middle">46</text>
<text x="113.4" y="340.0" fill="#888780" font-size="11" text-anchor="middle">0-5</text>
<rect x="161.9" y="245.5" width="76.9" height="78.5" fill="#378ADD" rx="3"/>
<text x="200.3" y="239.5" fill="#5F5E5A" font-size="11" text-anchor="middle">70</text>
<text x="200.3" y="340.0" fill="#888780" font-size="11" text-anchor="middle">5-10</text>
<rect x="248.8" y="127.8" width="76.9" height="196.2" fill="#378ADD" rx="3"/>
<text x="287.2" y="121.8" fill="#5F5E5A" font-size="11" text-anchor="middle">175</text>
<text x="287.2" y="340.0" fill="#888780" font-size="11" text-anchor="middle">10-15</text>
<rect x="335.7" y="74.0" width="76.9" height="250.0" fill="#378ADD" rx="3"/>
<text x="374.1" y="68.0" fill="#5F5E5A" font-size="11" text-anchor="middle">223</text>
<text x="374.1" y="340.0" fill="#888780" font-size="11" text-anchor="middle">15-20</text>
<rect x="422.6" y="177.1" width="76.9" height="146.9" fill="#378ADD" rx="3"/>
<text x="461.0" y="171.1" fill="#5F5E5A" font-size="11" text-anchor="middle">131</text>
<text x="461.0" y="340.0" fill="#888780" font-size="11" text-anchor="middle">20-25</text>
<rect x="509.4" y="250.0" width="76.9" height="74.0" fill="#378ADD" rx="3"/>
<text x="547.9" y="244.0" fill="#5F5E5A" font-size="11" text-anchor="middle">66</text>
<text x="547.9" y="340.0" fill="#888780" font-size="11" text-anchor="middle">25-30</text>
<rect x="596.3" y="259.0" width="76.9" height="65.0" fill="#378ADD" rx="3"/>
<text x="634.8" y="253.0" fill="#5F5E5A" font-size="11" text-anchor="middle">58</text>
<text x="634.8" y="340.0" fill="#888780" font-size="11" text-anchor="middle">30-35</text>
<rect x="683.2" y="219.7" width="76.9" height="104.3" fill="#378ADD" rx="3"/>
<text x="721.7" y="213.7" fill="#5F5E5A" font-size="11" text-anchor="middle">93</text>
<text x="721.7" y="340.0" fill="#888780" font-size="11" text-anchor="middle">35-40</text>
<rect x="770.1" y="176.0" width="76.9" height="148.0" fill="#378ADD" rx="3"/>
<text x="808.6" y="170.0" fill="#5F5E5A" font-size="11" text-anchor="middle">132</text>
<text x="808.6" y="340.0" fill="#888780" font-size="11" text-anchor="middle">40-45</text>
<text x="461.0" y="362.0" fill="#5F5E5A" font-size="12" text-anchor="middle">Gas used (millions)</text>
<text x="24" y="199.0" fill="#5F5E5A" font-size="12" text-anchor="middle" transform="rotate(-90 24 199.0)">Number of blocks</text>
<line x1="409.3" y1="74" x2="409.3" y2="324" stroke="#BA7517" stroke-width="1.5" stroke-dasharray="4 3"/>
<text x="413.3" y="86" fill="#BA7517" font-size="11">median 19.5M</text>
<line x1="466.8" y1="74" x2="466.8" y2="324" stroke="#993C1D" stroke-width="1.5" stroke-dasharray="4 3"/>
<text x="470.8" y="86" fill="#993C1D" font-size="11">mean 22.8M</text>
<text x="70" y="444" fill="#2C2C2A" font-size="14" font-weight="500">Cumulative distribution</text>
<line x1="70" y1="702.0" x2="852" y2="702.0" stroke="#E1E0D9"/>
<text x="62" y="706.0" fill="#888780" font-size="11" text-anchor="end">0%</text>
<line x1="70" y1="652.0" x2="852" y2="652.0" stroke="#E1E0D9"/>
<text x="62" y="656.0" fill="#888780" font-size="11" text-anchor="end">20%</text>
<line x1="70" y1="602.0" x2="852" y2="602.0" stroke="#E1E0D9"/>
<text x="62" y="606.0" fill="#888780" font-size="11" text-anchor="end">40%</text>
<line x1="70" y1="552.0" x2="852" y2="552.0" stroke="#E1E0D9"/>
<text x="62" y="556.0" fill="#888780" font-size="11" text-anchor="end">60%</text>
<line x1="70" y1="502.0" x2="852" y2="502.0" stroke="#E1E0D9"/>
<text x="62" y="506.0" fill="#888780" font-size="11" text-anchor="end">80%</text>
<line x1="70" y1="452.0" x2="852" y2="452.0" stroke="#E1E0D9"/>
<text x="62" y="456.0" fill="#888780" font-size="11" text-anchor="end">100%</text>
<polyline points="70.0,702.0 87.0,702.0 104.0,701.2 121.0,697.7 138.0,695.0 155.0,690.4 172.0,686.9 189.0,684.6 206.0,680.9 223.0,677.1 240.0,672.8 257.0,666.8 274.0,659.7 291.0,653.0 308.0,640.1 325.0,628.8 342.0,618.0 359.0,605.9 376.0,593.9 393.0,583.0 410.0,572.7 427.0,563.2 444.0,556.9 461.0,549.6 478.0,544.8 495.0,539.8 512.0,535.8 529.0,532.2 546.0,529.2 563.0,526.9 580.0,523.2 597.0,520.9 614.0,518.1 631.0,514.4 648.0,510.9 665.0,508.6 682.0,503.3 699.0,499.8 716.0,494.0 733.0,490.2 750.0,485.2 767.0,480.7 784.0,476.9 801.0,474.9 818.0,471.4 835.0,458.3 852.0,452.0" fill="none" stroke="#BA7517" stroke-width="2.5"/>
<text x="70.0" y="718.0" fill="#888780" font-size="11" text-anchor="middle">0</text>
<text x="155.0" y="718.0" fill="#888780" font-size="11" text-anchor="middle">5</text>
<text x="240.0" y="718.0" fill="#888780" font-size="11" text-anchor="middle">10</text>
<text x="325.0" y="718.0" fill="#888780" font-size="11" text-anchor="middle">15</text>
<text x="410.0" y="718.0" fill="#888780" font-size="11" text-anchor="middle">20</text>
<text x="495.0" y="718.0" fill="#888780" font-size="11" text-anchor="middle">25</text>
<text x="580.0" y="718.0" fill="#888780" font-size="11" text-anchor="middle">30</text>
<text x="665.0" y="718.0" fill="#888780" font-size="11" text-anchor="middle">35</text>
<text x="750.0" y="718.0" fill="#888780" font-size="11" text-anchor="middle">40</text>
<text x="835.0" y="718.0" fill="#888780" font-size="11" text-anchor="middle">45</text>
<text x="461.0" y="740.0" fill="#5F5E5A" font-size="12" text-anchor="middle">Gas used (millions)</text>
<text x="24" y="577.0" fill="#5F5E5A" font-size="12" text-anchor="middle" transform="rotate(-90 24 577.0)">% of blocks ≤ x</text>
<circle cx="401.9" cy="577.0" r="3.5" fill="#BA7517"/>
<text x="407.9" y="581.0" fill="#5F5E5A" font-size="11">median: 19.5M</text>
<circle cx="783.6" cy="477.0" r="3.5" fill="#BA7517"/>
<text x="789.6" y="481.0" fill="#5F5E5A" font-size="11">p90: 42.0M</text>
</svg>