<svg viewBox="0 0 880 860" xmlns="http://www.w3.org/2000/svg" font-family="-apple-system,Segoe UI,Roboto,sans-serif">
<rect width="880" height="860" fill="#FFFFFF"/>
<text x="40" y="34" fill="#2C2C2A" font-size="19" font-weight="500">RSP guest — cycle profile</text>
<text x="40" y="54" fill="#5F5E5A" font-size="12">phases: mean of 23 blocks · opcodes/precompiles: block 23808161 (299M cycles, 154 tx)</text>
<text x="40" y="90" fill="#2C2C2A" font-size="14" font-weight="500">Where the cycles go — phase breakdown (% of total)</text>
<text x="150" y="125" fill="#5F5E5A" font-size="12" text-anchor="end">block execution (EVM)</text>
<rect x="160" y="112" width="620.0" height="18" fill="#2a78d6" rx="3"/>
<text x="786.0" y="125" fill="#5F5E5A" font-size="11">31.3%</text>
<text x="150" y="153" fill="#5F5E5A" font-size="12" text-anchor="end">deserialize inputs</text>
<rect x="160" y="140" width="477.4" height="18" fill="#eda100" rx="3"/>
<text x="643.4" y="153" fill="#5F5E5A" font-size="11">24.1%</text>
<text x="150" y="181" fill="#5F5E5A" font-size="12" text-anchor="end">init witness DB</text>
<rect x="160" y="168" width="431.8" height="18" fill="#eda100" rx="3"/>
<text x="597.8" y="181" fill="#5F5E5A" font-size="11">21.8%</text>
<text x="150" y="209" fill="#5F5E5A" font-size="12" text-anchor="end">state root</text>
<rect x="160" y="196" width="231.8" height="18" fill="#898781" rx="3"/>
<text x="397.8" y="209" fill="#5F5E5A" font-size="11">11.7%</text>
<text x="150" y="237" fill="#5F5E5A" font-size="12" text-anchor="end">untracked</text>
<rect x="160" y="224" width="134.7" height="18" fill="#898781" rx="3"/>
<text x="300.7" y="237" fill="#5F5E5A" font-size="11">6.8%</text>
<text x="150" y="265" fill="#5F5E5A" font-size="12" text-anchor="end">recover senders</text>
<rect x="160" y="252" width="59.4" height="18" fill="#898781" rx="3"/>
<text x="225.4" y="265" fill="#5F5E5A" font-size="11">3.0%</text>
<text x="150" y="293" fill="#5F5E5A" font-size="12" text-anchor="end">block validation</text>
<rect x="160" y="280" width="27.7" height="18" fill="#898781" rx="3"/>
<text x="193.7" y="293" fill="#5F5E5A" font-size="11">1.4%</text>
<text x="160" y="316" fill="#5F5E5A" font-size="11">blue = EVM · amber = input loading (deserialize + trie) ≈ 46% · gray = other overhead</text>
<text x="40" y="352" fill="#2C2C2A" font-size="14" font-weight="500">EVM opcode frequency — top 12 (call count)</text>
<text x="150" y="387" fill="#5F5E5A" font-size="12" text-anchor="end">push1</text>
<rect x="160" y="374" width="620.0" height="18" fill="#2a78d6" rx="3"/>
<text x="786.0" y="387" fill="#5F5E5A" font-size="11">71k</text>
<text x="150" y="415" fill="#5F5E5A" font-size="12" text-anchor="end">push2</text>
<rect x="160" y="402" width="555.3" height="18" fill="#2a78d6" rx="3"/>
<text x="721.3" y="415" fill="#5F5E5A" font-size="11">63k</text>
<text x="150" y="443" fill="#5F5E5A" font-size="12" text-anchor="end">jumpdest</text>
<rect x="160" y="430" width="400.4" height="18" fill="#2a78d6" rx="3"/>
<text x="566.4" y="443" fill="#5F5E5A" font-size="11">46k</text>
<text x="150" y="471" fill="#5F5E5A" font-size="12" text-anchor="end">pop</text>
<rect x="160" y="458" width="366.4" height="18" fill="#2a78d6" rx="3"/>
<text x="532.4" y="471" fill="#5F5E5A" font-size="11">42k</text>
<text x="150" y="499" fill="#5F5E5A" font-size="12" text-anchor="end">swap1</text>
<rect x="160" y="486" width="319.0" height="18" fill="#2a78d6" rx="3"/>
<text x="485.0" y="499" fill="#5F5E5A" font-size="11">36k</text>
<text x="150" y="527" fill="#5F5E5A" font-size="12" text-anchor="end">jumpi</text>
<rect x="160" y="514" width="284.8" height="18" fill="#2a78d6" rx="3"/>
<text x="450.8" y="527" fill="#5F5E5A" font-size="11">32k</text>
<text x="150" y="555" fill="#5F5E5A" font-size="12" text-anchor="end">dup2</text>
<rect x="160" y="542" width="273.5" height="18" fill="#2a78d6" rx="3"/>
<text x="439.5" y="555" fill="#5F5E5A" font-size="11">31k</text>
<text x="150" y="583" fill="#5F5E5A" font-size="12" text-anchor="end">dup1</text>
<rect x="160" y="570" width="248.4" height="18" fill="#2a78d6" rx="3"/>
<text x="414.4" y="583" fill="#5F5E5A" font-size="11">28k</text>
<text x="150" y="611" fill="#5F5E5A" font-size="12" text-anchor="end">add</text>
<rect x="160" y="598" width="241.1" height="18" fill="#2a78d6" rx="3"/>
<text x="407.1" y="611" fill="#5F5E5A" font-size="11">27k</text>
<text x="150" y="639" fill="#5F5E5A" font-size="12" text-anchor="end">jump</text>
<rect x="160" y="626" width="218.9" height="18" fill="#2a78d6" rx="3"/>
<text x="384.9" y="639" fill="#5F5E5A" font-size="11">25k</text>
<text x="150" y="667" fill="#5F5E5A" font-size="12" text-anchor="end">push32</text>
<rect x="160" y="654" width="205.2" height="18" fill="#2a78d6" rx="3"/>
<text x="371.2" y="667" fill="#5F5E5A" font-size="11">23k</text>
<text x="150" y="695" fill="#5F5E5A" font-size="12" text-anchor="end">mulmod</text>
<rect x="160" y="682" width="114.1" height="18" fill="#eb6834" rx="3"/>
<text x="280.1" y="695" fill="#5F5E5A" font-size="11">13k</text>
<text x="40" y="740" fill="#2C2C2A" font-size="14" font-weight="500">Precompile cost per call (RISC-V cycles, log scale)</text>
<text x="150" y="775" fill="#5F5E5A" font-size="12" text-anchor="end">modexp</text>
<rect x="160" y="762" width="620.0" height="18" fill="#eb6834" rx="3"/>
<text x="786.0" y="775" fill="#5F5E5A" font-size="11">409,774</text>
<text x="150" y="803" fill="#5F5E5A" font-size="12" text-anchor="end">ecrecover</text>
<rect x="160" y="790" width="505.2" height="18" fill="#eb6834" rx="3"/>
<text x="671.2" y="803" fill="#5F5E5A" font-size="11">37,439</text>
<text x="150" y="831" fill="#5F5E5A" font-size="12" text-anchor="end">sha256</text>
<rect x="160" y="818" width="386.8" height="18" fill="#eb6834" rx="3"/>
<text x="552.8" y="831" fill="#5F5E5A" font-size="11">3,175</text>
<text x="150" y="859" fill="#5F5E5A" font-size="12" text-anchor="end">identity</text>
<rect x="160" y="846" width="349.2" height="18" fill="#eb6834" rx="3"/>
<text x="515.2" y="859" fill="#5F5E5A" font-size="11">1,450</text>
</svg>